<svg xmlns="http://www.w3.org/2000/svg" version="1.1" xmlns:xlink="http://www.w3.org/1999/xlink" xmlns:svgjs="http://svgjs.dev/svgjs" width="500" height="500"><svg xmlns="http://www.w3.org/2000/svg" xmlns:xlink="http://www.w3.org/1999/xlink" version="1.1" width="500" height="500" viewBox="0 0 500 500" xml:space="preserve">
<desc>Created with Fabric.js 3.6.3</desc>
<defs>
</defs>
<g transform="matrix(1 0 0 1 250.24999999999997 250.25000000000003)" style=""><path fill="#FFBE5C" opacity="1" d="M-169.83 92.62L-217.60 92.62L-217.60 80.83L-129.73-104.93L-76.66-104.93L11.20 80.83L11.20 92.62L-36.56 92.62L-53.66 54.29L-153.03 54.29L-169.83 92.62ZM-133.27 10.07L-73.12 10.07L-103.20-57.45L-133.27 10.07Z"></path><path fill="#FFBE5C" opacity="1" d="M124.43 98.52L116.17 98.52Q92.29 98.52 76.51 92.77Q60.74 87.02 51.45 77.00Q42.16 66.97 38.48 53.56Q34.79 40.14 34.79 24.81L34.79 24.81L34.79-54.80L81.97-54.80L81.97 18.91Q81.97 25.99 82.56 32.77Q83.15 39.55 86.69 44.56Q90.22 49.58 98.04 52.67Q105.85 55.77 120.30 55.77L120.30 55.77Q134.75 55.77 142.56 52.67Q150.37 49.58 153.91 44.56Q157.45 39.55 158.04 32.77Q158.63 25.99 158.63 18.91L158.63 18.91L158.63-54.80L205.81-54.80L205.81 24.81Q205.81 40.14 201.97 53.56Q198.14 66.97 188.85 77.00Q179.56 87.02 163.94 92.77Q148.31 98.52 124.43 98.52L124.43 98.52Z"></path></g></svg><style>@media (prefers-color-scheme: light) { :root { filter: none; } }
@media (prefers-color-scheme: dark) { :root { filter: none; } }
</style></svg>