<?xml version="1.0" standalone="no"?>
<!DOCTYPE svg PUBLIC "-//W3C//DTD SVG 20010904//EN"
 "http://www.w3.org/TR/2001/REC-SVG-20010904/DTD/svg10.dtd">
<svg version="1.0" xmlns="http://www.w3.org/2000/svg"
 width="512.000000pt" height="512.000000pt" viewBox="0 0 512.000000 512.000000"
 preserveAspectRatio="xMidYMid meet">

<g transform="translate(0.000000,512.000000) scale(0.100000,-0.100000)"
fill="#000000" stroke="none">
<path d="M1114 5105 c-167 -36 -293 -147 -345 -303 -17 -52 -21 -81 -17 -160
3 -83 8 -107 35 -164 18 -37 53 -89 83 -120 32 -33 48 -57 43 -64 -4 -7 -39
-50 -76 -97 -124 -157 -160 -238 -139 -312 7 -25 2 -44 -30 -110 -79 -167 -73
-33 -73 -1680 0 -1652 -6 -1514 76 -1681 92 -187 249 -319 459 -385 l75 -24
1355 0 1355 0 75 24 c210 66 367 198 459 385 82 167 76 30 76 1676 0 1205 -2
1475 -14 1520 -21 86 -61 180 -103 243 -24 38 -38 70 -38 91 0 41 -61 167
-132 273 l-55 82 58 57 c257 254 103 697 -261 754 -42 6 -555 10 -1435 9
-1099 0 -1382 -3 -1431 -14z m2918 -188 c182 -90 223 -315 81 -448 -21 -20
-57 -46 -79 -59 -70 -38 -80 -84 -33 -151 88 -127 166 -249 183 -287 23 -51
13 -84 -32 -100 -57 -20 -96 20 -107 110 -19 151 -196 242 -340 174 -81 -37
-125 -101 -139 -198 -9 -61 -32 -89 -74 -90 -47 -1 -69 25 -81 100 -12 78 -50
136 -114 176 -61 38 -147 47 -211 22 -81 -31 -155 -127 -156 -201 -1 -68 -48
-111 -101 -93 -35 12 -44 28 -54 93 -22 155 -167 248 -316 203 -84 -25 -168
-134 -169 -218 -1 -41 -17 -65 -51 -78 -52 -20 -92 19 -103 101 -7 57 -24 91
-67 135 -46 47 -84 64 -154 70 -135 10 -239 -78 -260 -221 -9 -61 -31 -88 -73
-89 -47 -1 -68 24 -81 95 -36 206 -251 285 -410 151 -38 -31 -81 -115 -81
-156 0 -41 -20 -76 -49 -86 -61 -21 -115 33 -87 86 17 33 111 156 175 229 l46
53 1287 0 1287 0 27 24 c21 18 28 32 28 61 0 29 -7 43 -28 61 l-27 24 -1303 0
-1303 0 -29 22 c-73 57 -114 138 -114 223 0 139 74 237 213 281 34 10 303 12
1442 11 l1400 -2 57 -28z m-2723 -926 c11 -11 23 -37 26 -58 12 -78 26 -111
65 -155 48 -55 105 -80 180 -80 131 0 224 89 244 234 8 53 33 78 76 78 37 0
66 -37 73 -93 17 -130 120 -221 248 -220 67 1 120 24 170 74 37 37 69 111 69
159 0 39 35 80 70 80 45 0 69 -28 80 -94 21 -133 114 -218 238 -218 130 -1
225 84 247 222 9 55 38 90 77 90 37 0 65 -30 73 -77 17 -110 69 -186 147 -218
49 -19 139 -22 183 -5 74 28 138 104 150 176 17 97 35 124 88 124 35 0 64 -38
72 -95 24 -169 197 -268 346 -196 52 25 56 22 89 -65 40 -109 41 -128 38
-1599 l-3 -1420 -23 -67 c-12 -37 -45 -101 -72 -142 -82 -121 -192 -200 -335
-236 -76 -20 -110 -20 -1365 -20 -1255 0 -1289 0 -1365 20 -143 36 -253 115
-335 236 -27 41 -60 105 -72 142 l-23 67 -3 1427 c-3 1531 -4 1499 47 1613 19
43 21 45 48 34 15 -6 54 -11 85 -11 124 0 238 112 238 234 0 63 86 102 129 59z"/>
<path d="M1043 3096 l-28 -24 0 -986 0 -985 23 -23 23 -23 1499 0 1499 0 23
23 23 23 0 985 0 986 -28 24 -28 24 -1489 0 -1489 0 -28 -24z m2897 -1011 l0
-865 -1380 0 -1380 0 0 865 0 865 1380 0 1380 0 0 -865z"/>
</g>
</svg>
